<svg width="180" height="180" viewBox="0 0 180 180" fill="none" xmlns="http://www.w3.org/2000/svg">
<rect width="180" height="180" rx="49.2537" fill="white"/>
<path d="M126.647 89.6733C126.647 75.3027 128.89 61.4451 133.053 48.4573C133.415 47.3237 132.35 46.2585 131.216 46.6201C118.228 50.7832 104.366 53.026 90 53.026C75.6343 53.026 61.7718 50.7832 48.784 46.6201C47.6504 46.2585 46.5852 47.3237 46.9468 48.4573C51.1099 61.4451 53.3527 75.3076 53.3527 89.6733C53.3527 104.039 51.1099 117.901 46.9468 130.889C46.5852 132.023 47.6504 133.088 48.784 132.727C61.7718 128.563 75.6343 126.321 90 126.321C104.366 126.321 118.228 128.563 131.216 132.727C132.35 133.088 133.415 132.023 133.053 130.889C128.89 117.901 126.647 104.039 126.647 89.6733ZM111.988 111.632C90 111.662 68.0116 90.7141 68.0409 67.6849H111.988V111.632Z" fill="#061515"/>
</svg>
